<svg xmlns="http://www.w3.org/2000/svg" viewBox="0 0 12 26">
  <defs>
    <linearGradient id="stem" x1="0" y1="0" x2="1" y2="0">
      <stop offset="0" stop-color="#1d4a21"/>
      <stop offset="0.5" stop-color="#2e7436"/>
      <stop offset="1" stop-color="#17381a"/>
    </linearGradient>
    <linearGradient id="shine" x1="0" y1="0" x2="0" y2="1">
      <stop offset="0" stop-color="#b8f3a2" stop-opacity="0.52"/>
      <stop offset="1" stop-color="#b8f3a2" stop-opacity="0"/>
    </linearGradient>
  </defs>

  <rect x="2" y="0" width="8" height="26" rx="4" fill="url(#stem)"/>
  <path d="M4,0 C3,3 6,6 4,9 C3,12 6,15 4,18 C3,21 6,24 5,26" stroke="#245f2b" stroke-width="1.2" fill="none" opacity="0.75"/>
  <path d="M8,0 C9,3 6,6 8,9 C9,12 6,15 8,18 C9,21 6,24 7,26" stroke="#1a4a22" stroke-width="1.1" fill="none" opacity="0.72"/>

  <ellipse cx="5" cy="5" rx="1.1" ry="0.7" fill="url(#shine)"/>
  <ellipse cx="6" cy="12" rx="1.2" ry="0.8" fill="url(#shine)"/>
  <ellipse cx="5" cy="19" rx="1.1" ry="0.7" fill="url(#shine)"/>
</svg>
