<svg xmlns="http://www.w3.org/2000/svg" viewBox="0 0 40 40">
  <!-- Transparent — vine stems and leaf clusters along edges only -->

  <!-- LEFT vine stems (seamless vertical tile: same x at y=0 and y=40) -->
  <path d="M3,0 C1,8 5,16 2,24 C1,32 4,37 3,40" stroke="#3A6B30" stroke-width="2.2" fill="none"/>
  <path d="M9,0 C11,7 8,15 10,23 C9,31 11,37 9,40" stroke="#4A7C3F" stroke-width="1.6" fill="none"/>

  <!-- LEFT leaf blobs -->
  <circle cx="6"  cy="5"  r="7"   fill="#32CD32" stroke="#1A6B1A" stroke-width="0.8"/>
  <circle cx="1"  cy="12" r="6"   fill="#2AAF2A" stroke="#1A6B1A" stroke-width="0.8"/>
  <circle cx="11" cy="16" r="6.5" fill="#228B22" stroke="#1A6B1A" stroke-width="0.8"/>
  <circle cx="3"  cy="22" r="7"   fill="#32CD32" stroke="#1A6B1A" stroke-width="0.8"/>
  <circle cx="9"  cy="28" r="6.5" fill="#2AAF2A" stroke="#1A6B1A" stroke-width="0.8"/>
  <circle cx="2"  cy="34" r="6"   fill="#228B22" stroke="#1A6B1A" stroke-width="0.8"/>
  <circle cx="10" cy="39" r="5"   fill="#1A7A1A" stroke="#1A6B1A" stroke-width="0.8"/>

  <!-- RIGHT vine stems -->
  <path d="M37,0 C39,8 35,16 38,24 C39,32 36,37 37,40" stroke="#3A6B30" stroke-width="2.2" fill="none"/>
  <path d="M31,0 C29,7 32,15 30,23 C31,31 29,37 31,40" stroke="#4A7C3F" stroke-width="1.6" fill="none"/>

  <!-- RIGHT leaf blobs -->
  <circle cx="34" cy="5"  r="7"   fill="#32CD32" stroke="#1A6B1A" stroke-width="0.8"/>
  <circle cx="39" cy="12" r="6"   fill="#2AAF2A" stroke="#1A6B1A" stroke-width="0.8"/>
  <circle cx="29" cy="16" r="6.5" fill="#228B22" stroke="#1A6B1A" stroke-width="0.8"/>
  <circle cx="37" cy="22" r="7"   fill="#32CD32" stroke="#1A6B1A" stroke-width="0.8"/>
  <circle cx="31" cy="28" r="6.5" fill="#2AAF2A" stroke="#1A6B1A" stroke-width="0.8"/>
  <circle cx="38" cy="34" r="6"   fill="#228B22" stroke="#1A6B1A" stroke-width="0.8"/>
  <circle cx="30" cy="39" r="5"   fill="#1A7A1A" stroke="#1A6B1A" stroke-width="0.8"/>
</svg>
