<svg xmlns="http://www.w3.org/2000/svg" viewBox="0 0 40 24">
  <defs>
    <radialGradient id="ceLeaf" cx="38%" cy="35%" r="72%">
      <stop offset="0" stop-color="#b5ff92"/>
      <stop offset="0.56" stop-color="#56c54d"/>
      <stop offset="1" stop-color="#1f6b29"/>
    </radialGradient>
  </defs>

  <path d="M0,4 C6,2 14,6 20,4 C26,2 34,6 40,4" stroke="#3d6f2d" stroke-width="2.6" fill="none"/>
  <path d="M7,3 C7,8 6,15" stroke="#2d5920" stroke-width="1.8" fill="none"/>
  <path d="M20,3 C21,9 19,17" stroke="#2d5920" stroke-width="2" fill="none"/>
  <path d="M33,3 C34,8 33,16" stroke="#3d6f2d" stroke-width="1.8" fill="none"/>

  <ellipse cx="3" cy="4" rx="7.5" ry="6.5" fill="url(#ceLeaf)"/>
  <ellipse cx="13" cy="3" rx="8" ry="6.8" fill="url(#ceLeaf)"/>
  <ellipse cx="23" cy="4" rx="7.5" ry="6.5" fill="url(#ceLeaf)"/>
  <ellipse cx="33" cy="3" rx="8" ry="6.8" fill="url(#ceLeaf)"/>
  <ellipse cx="40" cy="4" rx="6" ry="5.5" fill="url(#ceLeaf)"/>

  <ellipse cx="7" cy="14" rx="7.5" ry="6.4" fill="#3ea63d"/>
  <ellipse cx="18" cy="15" rx="8" ry="6.9" fill="#4ebf4c"/>
  <ellipse cx="29" cy="14" rx="7.5" ry="6.4" fill="#3ea63d"/>
  <ellipse cx="39" cy="15" rx="6.5" ry="5.7" fill="#4ebf4c"/>

  <ellipse cx="3" cy="22" rx="5.5" ry="4.4" fill="#255d26"/>
  <ellipse cx="14" cy="23" rx="6" ry="4.9" fill="#2b6d2d"/>
  <ellipse cx="25" cy="22" rx="5.5" ry="4.4" fill="#255d26"/>
  <ellipse cx="35" cy="23" rx="6" ry="4.9" fill="#2b6d2d"/>

  <path d="M8,8 L12,9 M18,8 L22,9 M27,7 L31,8" stroke="#ddffc2" stroke-width="0.7" opacity="0.45"/>
</svg>
